<svg id="Camada_1" data-name="Camada 1" xmlns="http://www.w3.org/2000/svg" viewBox="0 0 936.76 860.76"><defs><style>.cls-1{fill:#f2f2f2;}</style></defs><path class="cls-1" d="M455.48,276.22,345.18,508.81a1.66,1.66,0,0,1-3.16-.72V123.85l-1.41-1.41H124.26a5.22,5.22,0,0,0-3.63,9L166,175.24a5.24,5.24,0,0,0,3.63,1.46H284.93a2.83,2.83,0,0,1,2.83,2.83V569a2.88,2.88,0,0,0,3,2.88l71.69-2.15A2.87,2.87,0,0,0,365,568L468.38,344.73V276.22Z"/><path class="cls-1" d="M54.41,66.74A5.21,5.21,0,0,0,58,68.2H376A2.83,2.83,0,0,1,378.77,71V351.12c0,8.21,11.14,10.71,14.66,3.29l38.86-82a7.7,7.7,0,0,0,.75-3.3V15.35l-1.41-1.41H12.72a5.22,5.22,0,0,0-3.63,9Z"/><path class="cls-1" d="M481.28,276.22l110.3,232.59a1.66,1.66,0,0,0,3.16-.72V123.85l1.41-1.41H812.5a5.22,5.22,0,0,1,3.62,9L770.8,175.24a5.2,5.2,0,0,1-3.62,1.46H651.82a2.83,2.83,0,0,0-2.82,2.83V569a2.88,2.88,0,0,1-3,2.88l-71.69-2.15a2.87,2.87,0,0,1-2.53-1.66L468.38,344.73V276.22Z"/><path class="cls-1" d="M882.35,66.74a5.22,5.22,0,0,1-3.63,1.46H560.81A2.83,2.83,0,0,0,558,71V351.12c0,8.21-11.13,10.71-14.65,3.29l-38.87-82a7.83,7.83,0,0,1-.74-3.3V15.35l1.41-1.41H924a5.22,5.22,0,0,1,3.63,9Z"/><path class="cls-1" d="M501.63,846.82V489.92A6.5,6.5,0,0,1,514,487.13l41.26,87a6.58,6.58,0,0,1,.63,2.79v269.9Z"/><path class="cls-1" d="M432.37,669.61a8.5,8.5,0,0,0,2.75,1.76V489.92a6.5,6.5,0,0,0-12.37-2.79l-41.26,87a6.58,6.58,0,0,0-.63,2.79v40.39Z"/><path class="cls-1" d="M432.37,739.58l-51.51-52.29V846.82h54.26V741.34A8.34,8.34,0,0,1,432.37,739.58Z"/></svg>